<svg width="47" height="47" viewBox="0 0 47 47" fill="none" xmlns="http://www.w3.org/2000/svg">
<path d="M23.165 0.875L23.4414 0.881836C24.0849 0.914249 24.719 1.05791 25.3145 1.30762L25.5664 1.4209C26.0644 1.65946 26.5243 1.97085 26.9307 2.34473L27.1289 2.53711L27.1299 2.53809L36.3789 12.0049L36.5635 12.2031C37.4622 13.2153 37.9606 14.5249 37.958 15.8848V23.9561C37.958 24.2364 37.8607 24.5067 37.6846 24.7217L37.6045 24.8105C37.3779 25.0371 37.0704 25.1641 36.75 25.1641C36.4697 25.1641 36.1994 25.0667 35.9844 24.8906L35.8955 24.8105C35.669 24.584 35.5421 24.2764 35.542 23.9561V15.8848L35.5273 15.5801C35.4684 14.9748 35.2335 14.3998 34.8525 13.9258L34.6504 13.6973L25.3994 4.22949C25.1443 3.96968 24.8462 3.75666 24.5186 3.59961L24.377 3.53516C24.0411 3.39424 23.6833 3.31392 23.3203 3.2959L23.165 3.29199H6.41699C5.58819 3.29199 4.79308 3.62098 4.20703 4.20703C3.62098 4.79308 3.29199 5.58819 3.29199 6.41699V41.083C3.29199 41.9118 3.62098 42.7069 4.20703 43.293C4.79308 43.879 5.58819 44.208 6.41699 44.208H32.417C32.8092 44.2095 33.1978 44.1335 33.5605 43.9844L33.6738 43.9453C33.94 43.8656 34.2266 43.8795 34.4854 43.9873C34.7812 44.1107 35.0167 44.3461 35.1387 44.6426C35.2606 44.9389 35.259 45.2716 35.1357 45.5674C35.0278 45.8261 34.8341 46.0383 34.5889 46.1689L34.4805 46.2197C33.8259 46.4886 33.1246 46.6256 32.417 46.624V46.625H6.41699C5.0397 46.6234 3.71532 46.1096 2.69922 45.1895L2.5 45C1.46115 43.9611 0.87676 42.5522 0.875 41.083V6.41699L0.881836 6.1416C0.951345 4.77259 1.52613 3.47387 2.5 2.5L2.69922 2.31055C3.71532 1.39041 5.0397 0.87665 6.41699 0.875H23.165Z" fill="#EA4722" stroke="#EA4722" stroke-width="0.25"/>
<path d="M24.9531 1.21667C25.2295 1.24419 25.4893 1.36633 25.6875 1.56433L25.7676 1.6532C25.9438 1.86818 26.0419 2.13839 26.042 2.41882V9.66687C26.0421 10.4956 26.371 11.2908 26.957 11.8768C27.5431 12.4627 28.3383 12.7919 29.167 12.7919H36.3057C36.6261 12.7919 36.9336 12.9189 37.1602 13.1454C37.3867 13.372 37.5146 13.6794 37.5146 13.9999C37.5146 14.2803 37.4164 14.5505 37.2402 14.7655L37.1602 14.8544C36.9336 15.081 36.6261 15.2079 36.3057 15.2079H29.167C27.7896 15.2062 26.4653 14.6926 25.4492 13.7723L25.25 13.5829C24.2113 12.5441 23.6268 11.1359 23.625 9.66687V2.41882C23.6251 2.09847 23.752 1.79086 23.9785 1.56433L24.0674 1.48425C24.2823 1.30815 24.5527 1.21089 24.833 1.21082L24.9531 1.21667Z" fill="#EA4722" stroke="#EA4722" stroke-width="0.25"/>
<path d="M34.5836 21.6158C35.0236 21.6159 35.454 21.7429 35.8239 21.9811H35.8249L36.3503 22.317C38.9916 23.9684 41.8592 25.2289 44.8639 26.0592H44.8629C45.3628 26.1797 45.8082 26.4638 46.1276 26.8668L46.2409 27.0231C46.4888 27.3964 46.6227 27.8358 46.6247 28.2867V30.1412L46.6178 30.6461C46.5479 33.0004 45.9692 35.3116 44.9225 37.4215L44.6911 37.8707C43.4981 40.0996 41.8059 42.0196 39.7487 43.4811L39.3327 43.7672L35.8542 46.0865C35.4777 46.3362 35.0353 46.467 34.5836 46.4655V46.4664C34.1317 46.467 33.6891 46.3335 33.3131 46.0826V46.0817L29.8336 43.7623C27.7293 42.3631 25.9801 40.4961 24.7213 38.3102L24.4762 37.8688C23.2038 35.4922 22.5392 32.837 22.5417 30.1412V28.2867L22.5504 28.0944C22.5898 27.6478 22.7586 27.2204 23.0387 26.8668L23.1647 26.7213C23.4704 26.3956 23.8656 26.1648 24.3024 26.0592L24.902 25.8873C27.8879 24.9996 30.7306 23.6841 33.3415 21.9811H33.3424L33.484 21.8971C33.8204 21.7132 34.1985 21.6158 34.5836 21.6158ZM34.5817 24.0543C31.6204 25.9761 28.3835 27.4339 24.9821 28.3785L24.9586 30.1432C24.9563 32.4411 25.5218 34.7041 26.6061 36.7301L26.8151 37.1061C27.8881 38.9704 29.3792 40.5631 31.1735 41.7565H31.1745L34.5827 44.024L37.9928 41.7516L38.3473 41.5074C40.1 40.262 41.5426 38.6262 42.5592 36.7272C43.6435 34.7017 44.2105 32.4396 44.2086 30.1422V28.3815C40.7983 27.437 37.552 25.978 34.5817 24.0543Z" fill="#EA4722" stroke="#EA4722" stroke-width="0.25"/>
<path d="M37.9489 30.1451C38.222 30.1744 38.4785 30.296 38.6744 30.4918L38.7535 30.5797C38.9281 30.7922 39.0255 31.0592 39.028 31.3365L39.0231 31.4547C38.9985 31.7283 38.8816 31.9869 38.6891 32.1862L38.6881 32.1881L34.3541 36.5211C34.156 36.7192 33.8961 36.8412 33.6198 36.8688L33.4996 36.8746C33.2193 36.8745 32.9489 36.7774 32.734 36.6012L32.6461 36.5211L30.4791 34.3541L30.4772 34.3531C30.2571 34.1253 30.1356 33.8194 30.1383 33.5026L30.1451 33.3844C30.1744 33.1113 30.296 32.8547 30.4918 32.6588L30.5797 32.5797C30.7922 32.4052 31.0593 32.3077 31.3365 32.3053L31.4547 32.3102C31.6892 32.3312 31.9128 32.4198 32.0973 32.566L32.1862 32.6442L33.4996 33.9576L36.9791 30.4791L36.9801 30.4772L37.0699 30.4C37.2854 30.2293 37.5535 30.1359 37.8307 30.1383L37.9489 30.1451Z" fill="#EA4722" stroke="#EA4722" stroke-width="0.25"/>
<path d="M17.25 9.54163C17.5704 9.54163 17.8779 9.66864 18.1045 9.89514L18.1846 9.98401C18.3608 10.199 18.4579 10.4693 18.458 10.7496C18.458 11.0302 18.3609 11.3012 18.1846 11.5162L18.1045 11.6041C17.8779 11.8307 17.5705 11.9586 17.25 11.9586H8.58301C8.30258 11.9585 8.03237 11.8605 7.81738 11.6842L7.72852 11.6041C7.50211 11.3776 7.375 11.07 7.375 10.7496C7.37509 10.4293 7.50199 10.1217 7.72852 9.89514L7.81738 9.81506C8.03232 9.63896 8.30272 9.5417 8.58301 9.54163H17.25Z" fill="#EA4722" stroke="#EA4722" stroke-width="0.25"/>
<path d="M23.75 16.0416C24.0704 16.0416 24.3779 16.1686 24.6045 16.3951L24.6846 16.484C24.8608 16.699 24.9579 16.9693 24.958 17.2496C24.958 17.5302 24.8609 17.8012 24.6846 18.0162L24.6045 18.1041C24.3779 18.3307 24.0705 18.4586 23.75 18.4586H8.58301C8.30258 18.4585 8.03237 18.3605 7.81738 18.1842L7.72852 18.1041C7.50211 17.8776 7.375 17.5699 7.375 17.2496C7.37509 16.9293 7.50199 16.6217 7.72852 16.3951L7.81738 16.3151C8.03232 16.139 8.30272 16.0417 8.58301 16.0416H23.75Z" fill="#EA4722" stroke="#EA4722" stroke-width="0.25"/>
<path d="M25.917 22.5416C26.2373 22.5417 26.545 22.6686 26.7715 22.8951L26.8516 22.984C27.0277 23.1989 27.1249 23.4693 27.125 23.7496C27.125 24.0301 27.0278 24.3012 26.8516 24.5162L26.7715 24.6041C26.545 24.8307 26.2373 24.9585 25.917 24.9586H8.58301C8.30258 24.9585 8.03237 24.8605 7.81738 24.6842L7.72852 24.6041C7.50211 24.3776 7.375 24.0699 7.375 23.7496C7.37509 23.4293 7.50199 23.1217 7.72852 22.8951L7.81738 22.8151C8.03232 22.639 8.30272 22.5417 8.58301 22.5416H25.917Z" fill="#EA4722" stroke="#EA4722" stroke-width="0.25"/>
<path d="M19.417 29.0416L19.5361 29.0475C19.8127 29.075 20.0732 29.1969 20.2715 29.3951L20.3516 29.484C20.5277 29.6989 20.6249 29.9693 20.625 30.2496C20.625 30.5301 20.5278 30.8012 20.3516 31.0162L20.2715 31.1041C20.045 31.3307 19.7373 31.4585 19.417 31.4586H8.58301C8.30258 31.4585 8.03237 31.3605 7.81738 31.1842L7.72852 31.1041C7.50211 30.8776 7.375 30.5699 7.375 30.2496C7.37509 29.9293 7.50199 29.6217 7.72852 29.3951L7.81738 29.3151C8.03232 29.139 8.30272 29.0417 8.58301 29.0416H19.417Z" fill="#EA4722" stroke="#EA4722" stroke-width="0.25"/>
<path d="M19.417 35.5416L19.5361 35.5475C19.8127 35.575 20.0732 35.6969 20.2715 35.8951L20.3516 35.984C20.5277 36.1989 20.6249 36.4693 20.625 36.7496C20.625 37.0301 20.5278 37.3012 20.3516 37.5162L20.2715 37.6041C20.045 37.8307 19.7373 37.9585 19.417 37.9586H8.58301C8.30258 37.9585 8.03237 37.8605 7.81738 37.6842L7.72852 37.6041C7.50211 37.3776 7.375 37.0699 7.375 36.7496C7.37509 36.4293 7.50199 36.1217 7.72852 35.8951L7.81738 35.8151C8.03232 35.639 8.30272 35.5417 8.58301 35.5416H19.417Z" fill="#EA4722" stroke="#EA4722" stroke-width="0.25"/>
</svg>
