<svg width="50" height="42" viewBox="0 0 50 42" fill="none" xmlns="http://www.w3.org/2000/svg">
<path d="M48.2969 17.8901C47.7704 17.8901 47.3438 18.3168 47.3438 18.8433V34.0112C47.3438 35.0862 46.4686 35.9614 45.3936 35.9614H33.333L36.2578 28.103C36.4538 27.5765 36.328 26.9994 35.9307 26.6021L35.7734 26.4653C35.3896 26.1778 34.8902 26.1035 34.4297 26.2749L22.041 30.8853L21.8877 30.9536C21.5416 31.1346 21.2916 31.4591 21.207 31.8472L21.1816 32.0132C21.1518 32.3467 21.249 32.6773 21.4541 32.9419L21.5654 33.0688L23.7627 35.2651L23.0664 35.9614H14.1309C13.6043 35.9614 13.1777 36.3882 13.1777 36.9146C13.1778 37.441 13.6044 37.8676 14.1309 37.8677H21.2607C20.991 38.401 21.0776 39.0698 21.5225 39.5151H21.5234L23.0176 41.0093V41.0103C23.2948 41.2871 23.6593 41.4252 24.0225 41.4253C24.3404 41.4253 24.6593 41.3192 24.9199 41.1069L25.0283 41.0103L27.2676 38.771L29.4639 40.9673C29.7446 41.2481 30.1303 41.386 30.5195 41.3511L30.6855 41.3257C31.0736 41.2411 31.3981 40.9913 31.5791 40.645L31.6475 40.4907L32.624 37.8677H45.3936C47.5201 37.8677 49.25 36.1377 49.25 34.0112V18.8433C49.25 18.3168 48.8234 17.8901 48.2969 17.8901ZM30.1758 38.9819L27.9414 36.7485L27.8691 36.6831C27.6944 36.5407 27.4806 36.4693 27.2676 36.4692C27.0241 36.4692 26.7798 36.5627 26.5938 36.7485H26.5928L24.0234 39.3179L23.2148 38.5093L25.7842 35.939C26.1563 35.5667 26.1563 34.9635 25.7842 34.5913L23.5508 32.3569L34.1025 28.4302L30.1758 38.9819Z" fill="#EA4722" stroke="#EA4722" stroke-width="0.5"/>
<path d="M10.3164 0.75C9.78994 0.750021 9.36328 1.17666 9.36328 1.70312C9.36328 2.22959 9.78994 2.65623 10.3164 2.65625H45.3936C46.4686 2.65625 47.3438 3.53148 47.3438 4.60645V8.76172H2.65625V4.60645C2.65625 3.5314 3.53148 2.65625 4.60645 2.65625H7.06445C7.59093 2.65625 8.01758 2.2296 8.01758 1.70312C8.01758 1.17665 7.59093 0.75 7.06445 0.75H4.60645C2.47994 0.75 0.75 2.47994 0.75 4.60645V34.0107C0.75 36.1373 2.47994 37.8672 4.60645 37.8672H10.7617C11.2882 37.8672 11.7148 37.4405 11.7148 36.9141C11.7147 36.3877 11.2881 35.9609 10.7617 35.9609H4.60645C3.5314 35.9609 2.65625 35.0857 2.65625 34.0107V10.668H47.3438V15.6787C47.3438 16.2052 47.7704 16.6318 48.2969 16.6318C48.8234 16.6318 49.25 16.2052 49.25 15.6787V4.60645C49.25 2.47994 47.5201 0.75 45.3936 0.75H10.3164Z" fill="#EA4722" stroke="#EA4722" stroke-width="0.5"/>
<path d="M43.0381 4.15662C42.1809 4.15681 41.4863 4.85204 41.4863 5.70935C41.4865 6.56647 42.181 7.26091 43.0381 7.26111C43.8953 7.26111 44.5906 6.56659 44.5908 5.70935C44.5908 4.85192 43.8954 4.15662 43.0381 4.15662Z" fill="#EA4722" stroke="#EA4722" stroke-width="0.5"/>
<path d="M39.0316 4.15662C38.1744 4.15681 37.4798 4.85204 37.4798 5.70935C37.48 6.56647 38.1745 7.26091 39.0316 7.26111C39.8888 7.26111 40.5841 6.56659 40.5843 5.70935C40.5843 4.85192 39.8889 4.15662 39.0316 4.15662Z" fill="#EA4722" stroke="#EA4722" stroke-width="0.5"/>
<path d="M35.0251 4.15662C34.1679 4.15681 33.4733 4.85204 33.4733 5.70935C33.4735 6.56647 34.168 7.26091 35.0251 7.26111C35.8823 7.26111 36.5776 6.56659 36.5778 5.70935C36.5778 4.85192 35.8824 4.15662 35.0251 4.15662Z" fill="#EA4722" stroke="#EA4722" stroke-width="0.5"/>
<path d="M37.9647 17.4644C37.5987 17.4667 37.2054 17.6704 37.0702 18.1001H37.0682L35.6444 22.2778L34.1942 18.144L34.1571 18.0532C33.9519 17.616 33.4448 17.3969 32.9794 17.5601L32.8885 17.5962C32.4802 17.7877 32.2615 18.2427 32.3671 18.6812L32.3944 18.7749L34.7557 25.5103C34.8898 25.8923 35.2505 26.1479 35.6552 26.1479H35.6591C36.0147 26.1464 36.3355 25.9476 36.4979 25.6401L36.5575 25.5024L37.9911 21.3022L39.4911 25.5151C39.6264 25.8946 39.986 26.1478 40.3885 26.1479H40.3944C40.7486 26.1458 41.0678 25.948 41.2303 25.6421L41.2899 25.5044L43.6024 18.7769C43.7736 18.279 43.5083 17.737 43.0106 17.5659L42.9169 17.5386C42.4464 17.4282 41.9601 17.6904 41.7997 18.1567L40.3729 22.3091L38.868 18.0884C38.7275 17.6605 38.3308 17.4621 37.9647 17.4644Z" fill="#EA4722" stroke="#EA4722" stroke-width="0.5"/>
<path d="M24.9553 17.4644C24.5892 17.4667 24.196 17.6704 24.0608 18.1001H24.0588L22.635 22.2778L21.1848 18.144L21.1477 18.0532C20.9425 17.616 20.4353 17.3969 19.97 17.5601L19.8792 17.5962C19.4708 17.7877 19.2522 18.2427 19.3577 18.6812L19.385 18.7749L21.7463 25.5103C21.8804 25.8923 22.2411 26.1479 22.6458 26.1479H22.6497C23.005 26.1464 23.326 25.9481 23.4885 25.6411L23.5481 25.5024L24.9817 21.3022L26.4817 25.5151C26.617 25.8946 26.9766 26.1478 27.3792 26.1479H27.385C27.7392 26.1458 28.0584 25.9479 28.2209 25.6421L28.2805 25.5044L30.593 18.7769C30.7641 18.279 30.4989 17.737 30.0012 17.5659L29.9075 17.5386C29.437 17.4282 28.9506 17.6911 28.7903 18.1577L27.3635 22.3091L25.8586 18.0884C25.7181 17.6605 25.3214 17.4621 24.9553 17.4644Z" fill="#EA4722" stroke="#EA4722" stroke-width="0.5"/>
<path d="M12.1561 17.4644C11.79 17.4669 11.3955 17.6702 11.2606 18.1001L9.83673 22.2778L8.38654 18.144L8.34943 18.0532C8.14425 17.616 7.63717 17.3969 7.17169 17.5601L7.08087 17.5962C6.67253 17.7877 6.45386 18.2427 6.55939 18.6812L6.58673 18.7749L8.94806 25.5103C9.08214 25.8923 9.44276 26.1479 9.84747 26.1479H9.85138C10.207 26.1464 10.5279 25.9476 10.6902 25.6401L10.7498 25.5024L12.1834 21.3022L13.6834 25.5151C13.8188 25.8946 14.1783 26.1478 14.5809 26.1479H14.5867C14.941 26.1458 15.2602 25.9479 15.4227 25.6421L15.4822 25.5044L17.7947 18.7769C17.9659 18.279 17.7006 17.737 17.2029 17.5659L17.1092 17.5386C16.6383 17.4283 16.1523 17.6911 15.992 18.1577L14.5652 22.3091L13.0604 18.0884C12.9199 17.6603 12.5223 17.462 12.1561 17.4644Z" fill="#EA4722" stroke="#EA4722" stroke-width="0.5"/>
</svg>
